<?xml version="1.0" encoding="UTF-8"?>
<!-- Generator: Adobe Illustrator 17.0.0, SVG Export Plug-In . SVG Version: 6.00 Build 0) -->
<!DOCTYPE svg PUBLIC "-//W3C//DTD SVG 1.1//EN" "http://www.w3.org/Graphics/SVG/1.1/DTD/svg11.dtd">
<svg version="1.1" id="Layer_1" xmlns="http://www.w3.org/2000/svg" xmlns:xlink="http://www.w3.org/1999/xlink" x="0px" y="0px" width="300px" height="300px" viewBox="0 0 300 300" enable-background="new 0 0 300 300" xml:space="preserve"> <path fill="#4C4C4C" d="M165.54,30.312c0.188,6.109-13.46,77.725,0.171,116.645c8.103,23.136-24.282,27.84-23.55,32.873 c4.963,34.123,15.248-13.63-9.523-125.138C127.722,4.742,165.029,13.661,165.54,30.312z"/> <path fill="#F2F2F2" d="M151.445,105.041c13.571-0.012,27.148-0.241,40.713,0.055c12.473,0.273,13.163,0.744,13.351,12.154 c0.336,20.351-0.059,40.714,0.138,61.069c0.075,7.714-2.955,11.211-10.891,11.163c-29.609-0.18-59.221-0.192-88.829,0.004 c-8.13,0.054-10.732-3.796-10.658-11.346c0.199-20.355,0.287-40.717-0.051-61.068c-0.143-8.583,2.963-12.353,11.815-12.123 C121.828,105.333,136.64,105.054,151.445,105.041z"/> <path fill="#4C4C4C" d="M149.603,167.167c-12.187-1.286-31.913-1.193-43.436-2.333c-25.601-2.534-29.606-36.821-15.668-58.966 c12.997-20.65,35.538-49.399,59.104-56.7c3.69-1.143,22.411-3.471,20.231,3c22.732,6.821,43.889,32.107,47.316,52.772 c7.418,9.725,4.419,38.014-3.649,46.894c-4.199,4.621-15.355,9.549-21.667,10.667C177.871,164.971,163.266,165.772,149.603,167.167z M152.406,97.929c-3.491,3.47-2.138,1.203-2.406,3.738c-0.784,7.411,8.962,8.922-0.397,9.585c-1.808,0.128-2.69-0.244-3.269,2.915 c-0.773,4.219-1.04,1.279,4.393,1.667c7.479,0.533,0.839-2.67,0.553,4.345c-0.2,4.888-4.524,1.938,0.708,2.155 c5.755,0.239,4.41,4.583,4.179-1.333c-0.278-7.122-3.196-4.772,4.167-5.333c5.436-0.414,0.947-0.208,0.167-4.415 c-0.585-3.153-1.007-3.632-2.833-3.765c-9.309-0.682-4.934,2.645-5.679-4.82C151.734,100.135,155.876,101.403,152.406,97.929z"/> <path fill="#4C4C4C" d="M151.501,249.039c-17.222,21.566-37.616,20.7-61.667,24.127c-9.376,1.336-25.225,5.82-34.667,6.667 c-3.151,0.282-11.361-6.529-14.267-7.333c-2.651-0.734-7.747-7.943-8.066-10c-0.354-2.28,9.204-18.682,11.333-19.333 c7.983-2.442,21.378,0.738,29.667-0.333c11.482-1.484,21.78-3.765,33.333-4.667c12.661-0.988,17.87-3.217,27.667-10.849 c12.868-10.025,22.177-5.529,34.67,3.516c18.345,13.281,34.044,14.778,56.33,15c8.908,0.089,18.52,3.425,27.333,4.897 c3.402,0.568,13.717,5.122,16.333,7.436c3.839,3.394-3.977,15.024-9,16.333c-2.985,0.778-9.573,2.011-12.667,1.667 c-16.23-1.802-32.639-1.458-48.861-3.333C180.082,270.649,164.584,264.715,151.501,249.039z"/> <path fill="#4C4C4C" d="M149.56,165.569c11.114,0,22.228,0.093,33.34-0.039c5.678-0.067,17.481,1.921,17.317,8.303 c-0.185,7.205,3.898,47.728-1.245,47.667c-21.548-0.255-76.257-0.233-97.805,0c-5.077,0.055,6.446-40.489,6.204-47.757 c-0.213-6.379,3.14-8.246,8.848-8.179c11.112,0.13,22.227,0.038,33.341,0.038C149.56,165.592,149.56,165.581,149.56,165.569z"/> <path fill="#4C4C4C" d="M103.966,209.503c16.07-11.056,78.801-11.642,95.006-0.713c-10.068,7.641-21.342,4.131-31.709,4.801 c-10.474,0.677-21.052,0.715-31.528,0.089C125.317,213.059,114.071,216.988,103.966,209.503z"/> <path fill="#4C4C4C" d="M169.5,31.616c0.187,6.714-8.796,16.009-15.667,16.19c-6.976,0.184-20.141-7.062-20.333-13.639 c-0.183-6.249,13.451-16.803,19.667-16.987C159.386,16.995,169.332,25.572,169.5,31.616z"/> <path fill="#2B2B2B" d="M151.559,81.619c3.47,3.475,7.53,5.624,7.783,8.154c0.746,7.465,1.879,13.095,11.188,13.776 c1.826,0.134,4.098,5.362,4.682,8.515c0.78,4.207-0.103,9.2-5.539,9.614c-7.362,0.561-10.101,3.932-9.824,11.053 c0.231,5.916-3.299,8.377-9.054,8.138c-5.232-0.217-7.781-3.152-7.581-8.039c0.286-7.014-2.216-10.617-9.695-11.15 c-5.433-0.387-6.355-5.367-5.582-9.587c0.579-3.158,2.839-8.411,4.647-8.539c9.359-0.662,10.364-6.387,11.147-13.799 C144,87.222,148.068,85.088,151.559,81.619z"/> <path fill="#2B2B2B" d="M151.149,160.221c13.663-1.395,27.932-2.131,41.894-4.603c6.312-1.118,13.477-4.359,17.676-8.98 c8.068-8.88,8.626-32.414,1.208-42.14c-13.978-18.326-30.838-33.45-53.569-40.271c-3.822-1.147-8.53-1.69-12.22-0.547 c-23.566,7.301-42.642,21.537-55.639,42.186c-13.938,22.145-0.171,48.118,25.43,50.652 C127.452,157.659,138.962,158.935,151.149,160.221z M151.308,240.211c13.083,15.676,29.803,22.287,48.694,24.471 c16.222,1.876,32.419,3.972,48.649,5.774c3.094,0.344,6.424,0.283,9.409-0.495c5.023-1.309,6.445-6.297,2.607-9.691 c-2.616-2.313-6.186-4.265-9.587-4.834c-8.813-1.473-17.762-2.817-26.67-2.906c-22.286-0.223-42.694-5.42-61.039-18.701 c-12.494-9.045-13.273-8.72-26.141,1.306c-9.797,7.633-20.187,13.468-32.848,14.456c-11.553,0.902-23.142,1.575-34.624,3.059 c-8.289,1.071-16.56,2.87-24.544,5.312c-2.129,0.651-4.634,5.083-4.28,7.363c0.319,2.057,4.093,4.336,6.743,5.069 c2.906,0.804,6.282,0.078,9.433-0.204c9.513-0.852,18.203-1.345,28.302-2.784C109.462,263.979,134.085,261.776,151.308,240.211z M151.524,172.873c0,0.011,0,0.023,0,0.034c-11.114,0-22.229,0.092-33.341-0.038c-5.708-0.067-9.061,1.799-8.848,8.179 c0.243,7.267,4.873,6.387,9.949,6.332c21.549-0.234,43.103-0.24,64.651,0.015c5.143,0.061,9.682,0.77,9.867-6.435 c0.164-6.381-3.261-8.192-8.938-8.125C173.753,172.966,162.638,172.873,151.524,172.873z M103.966,209.503 c10.105,7.485,21.351,3.555,31.769,4.177c10.476,0.626,21.055,0.587,31.528-0.089c10.367-0.67,21.641,2.839,31.709-4.801 C182.767,197.861,120.035,198.448,103.966,209.503z M162.384,31.379c-0.168-6.044-4.973-10.451-11.193-10.267 c-6.216,0.184-10.554,4.81-10.372,11.059c0.192,6.577,4.177,10.131,11.153,9.947C158.844,41.937,162.571,38.093,162.384,31.379z M38.83,296.5c-6.939-9.292-13.717-18.71-20.884-27.822c-3.594-4.569-2.894-8.456-0.099-12.983 c8.025-12.999,18.277-21.188,34.787-20.34c17.765,0.912,35.752,1.827,55.04-6.247c-3.883-1.243-6.009-1.821-8.061-2.597 c-14.32-5.412-18.452-10.895-12.999-25.184c5.951-15.594,2.994-26.845-6.556-40.188c-20.619-28.809-17.111-56.732,8.428-81.088 c9.11-8.688,19.617-16.049,30.101-23.103c5.628-3.787,8.125-6.341,5.116-13.691c-4.553-11.122-5.529-22.779,4.758-32.158 c8.922-8.135,27.322-10.286,38.968-4.668c10.324,4.981,16.004,15.775,14.244,27.566c-0.464,3.11-1.234,6.315-2.593,9.122 c-3.305,6.828-0.285,10.001,5.422,13.846c10.911,7.351,21.782,15.119,31.237,24.204c23.281,22.371,27.831,49.654,9.723,75.852 c-10.843,15.686-15.405,29.225-8.325,47.412c4.211,10.816,0.205,16.152-10.669,20.945c-2.856,1.259-5.957,1.961-10.842,3.525 c10.351,4.956,19.864,6.369,29.5,6.715c9.506,0.341,19.106,0.672,28.541-0.251c12.006-1.175,25.641,7.658,32.881,23.248 c1.197,2.577,0.163,7.348-1.582,9.925c-6.492,9.586-13.711,18.68-20.657,27.959c-2.117,0-4.234,0-6.352,0 c-6.226-7.934-15.294-8.026-24.202-9.248c-26.455-3.628-53.898-3.679-77.156-19.758c-4.281-2.959-7.736-1.747-11.479,0.988 c-12.244,8.948-26.459,12.818-41.124,15.099c-10.907,1.697-22.092,1.909-32.837,4.243c-8.852,1.923-19.514-0.626-25.98,8.675 C43.064,296.5,40.947,296.5,38.83,296.5z"/> </svg>