<?xml version="1.0" encoding="UTF-8"?>
<!-- Generator: Adobe Illustrator 17.0.0, SVG Export Plug-In . SVG Version: 6.00 Build 0) -->
<!DOCTYPE svg PUBLIC "-//W3C//DTD SVG 1.1//EN" "http://www.w3.org/Graphics/SVG/1.1/DTD/svg11.dtd">
<svg version="1.1" id="Layer_1" xmlns="http://www.w3.org/2000/svg" xmlns:xlink="http://www.w3.org/1999/xlink" x="0px" y="0px" width="300px" height="300px" viewBox="0 0 300 300" enable-background="new 0 0 300 300" xml:space="preserve"> <path fill="#4C4C4C" d="M37.956,65.194c2.639,5.513,19.079,76.54,47.268,106.638c16.757,17.892-10.969,35.275-8.267,39.584 c18.322,29.212,8.444-18.628-59.253-110.631C-6.968,57.076,30.763,50.168,37.956,65.194z"/> <path fill="#4C4C4C" d="M98.441,40.179c1.212,5.991-0.2,78.882,19.781,114.955c11.878,21.444-19.256,31.526-17.688,36.365 c10.629,32.803,12.739-16-30.428-121.755C56.862,21.331,95.137,23.851,98.441,40.179z"/> <path fill="#4C4C4C" d="M165.54,30.312c0.188,6.109-13.46,77.725,0.171,116.645c8.103,23.136-24.282,27.84-23.55,32.873 c4.963,34.123,15.248-13.63-9.523-125.138C127.722,4.742,165.029,13.661,165.54,30.312z"/> <path fill="#4C4C4C" d="M233.5,49.5c-0.922,6.042-27.321,74-20.967,114.745c3.777,24.221-28.925,22.979-29.117,28.062 c-1.302,34.457,17.466-10.642,13.309-124.792C200.941,17.5,236.014,33.031,233.5,49.5z"/> <path fill="#4C4C4C" d="M290.5,70.5c0.78,6.062-24,61.932-35,99c-6.974,23.501-26.808,20.917-27,26 c-1.302,34.457-21.359-11.956,29.785-103.985C262.5,41.5,289.042,59.171,290.5,70.5z"/> <path fill="#4C4C4C" d="M176.5,142.5c10.402,4.719,43.127-73.079,33-50.755s46.192,81.672,46,86.755 c-1.302,34.457-147.106,42.672-122.558-45.515C149.88,61.76,166.098,137.781,176.5,142.5z"/> <path fill="#4C4C4C" d="M77.5,143.5c11.422,0,23-74.514,23-50s71.675,92,60.253,92c-11.422,0-106.176,66.312-120.253-24.139 C26.5,89.5,66.078,143.5,77.5,143.5z"/> <path fill="#4C4C4C" d="M242.347,176.633c0,0-19.847,58.867-19.847,100.867c-175.133,3.433-116.318,2-131.421-4 c-34.362-18-5.823-73-26.748-93.335C77.703,185.167,222.554,138.136,242.347,176.633z"/> <path fill="#2B2B2B" d="M161.436,14.179c1.712,2.023,3.383,4.083,5.145,6.062c6.917,7.764,9.156,15.995,5.292,26.371 c-9.995,26.842-9.341,44.465,3.075,86.508c8.592-20.561,17.322-38.377,18.222-58.777c0.351-7.958-0.269-15.954-0.235-23.932 c0.055-13.225,5.883-21.628,17.395-25.438c9.25-3.061,19.384,0.118,25.685,8.058c7.283,9.177,8.218,21.287,0.808,31.057 c-5.906,7.787-10.432,15.652-12.58,25.326c-3.219,14.495-0.921,28.437,2.304,43.915c11.084-9.669,18.096-21.143,22.315-33.936 c1.663-5.042-0.387-11.377-1.02-17.093c-1.525-13.76,4.952-24.72,17.271-28.907c10.78-3.664,21.945,0.09,27.915,9.386 c7.244,11.28,7.276,23.401-2.887,31.66c-9.587,7.791-12.881,16.654-14.532,28.332c-2.445,17.291-7.607,34.18-10.984,51.364 c-1.721,8.757-5.458,15.975-11.776,22.088c-2.674,2.587-5.143,5.387-7.681,8.113c-11.944,12.828-17.413,26.636-6.669,43.023 c1.147,1.749,1.867,3.84,2.486,5.864c5.698,18.632,1.411,26.61-18.092,30.6c-12.931,2.646-26.227,4.956-39.352,4.92 c-30.773-0.084-61.548-1.525-92.309-2.766c-6.3-0.254-12.628-1.669-18.786-3.188c-15.879-3.917-20.01-11.028-15.479-26.861 c1.748-6.108,4.064-12.146,6.895-17.83c5.013-10.064,1.989-18.475-4.371-26.437c-1.987-2.488-4.156-4.867-6.478-7.044 c-11.249-10.547-18.027-23.291-20.62-38.596c-2.568-15.162-6.05-30.168-9.084-45.253c-1.998-9.932-4.709-18.413-13.977-25.424 c-13.549-10.251-9.617-32.135,5.59-40.156c15.933-8.405,33.555,1.086,35.232,19.063c0.295,3.163,0.301,6.411-0.049,9.566 c-2.275,20.535,7.528,35.633,21.514,49.345c7.927-21.143,4.138-53.098-7.725-67.361c-9.304-11.187-10.07-19.38-2.837-30.383 c5.919-9.005,17.385-13.117,27.841-9.984c10.519,3.152,20.134,14.111,17.855,25.145c-6.171,29.878,5.987,55.149,17.931,82.806 c1.493-3.857,2.751-6.298,3.36-8.891c0.724-3.086,0.751-6.329,1.321-9.459c4.234-23.241,5.645-46.173-2.405-69.202 c-4.538-12.984,0.569-23.971,12.125-31.653C146.535,14.179,153.985,14.179,161.436,14.179z M212.521,164.26 c9.663,4.008,19.326,8.017,29.826,12.372c7.145-13.602,10.755-26.933,11.209-44.282c-8.253,7.976-14.142,14.668-21.054,20.046 c-6.06,4.715-13.267,7.956-19.968,11.848c-2.557-18.92-5.113-37.84-7.595-56.205c-9.381,16.492-18.831,33.104-28.886,50.781 C188.84,160.728,200.68,162.494,212.521,164.26z M88.03,235.642c41.579-3.447,82.09-3.479,123.313-0.021 c0.824-7.749,1.57-14.762,2.359-22.183c-43.388-5.352-85.367-6.627-127.653,0.434C86.781,221.911,87.39,228.604,88.03,235.642z M219.043,262.358c-9.041-9.876-18.808-10.894-27.865-11.08c-28.679-0.591-57.381-0.313-86.07,0.018 c-5.204,0.06-10.477,1.649-15.538,3.146c-2.288,0.677-4.131,2.856-6.176,4.353c2.041,2.09,3.829,4.562,6.211,6.136 c1.628,1.076,4.083,0.908,6.17,1.281c32.188,5.738,64.608,2.94,96.929,2.171C200.74,268.193,208.7,264.826,219.043,262.358z M219.819,190.086c-22.571-19.075-121.152-18.068-141.391,1.444C95.922,194.129,211.377,192.95,219.819,190.086z M123.267,157.5 c-9.623-16.204-18.877-31.784-28.623-48.196c-5.617,17.708-2.722,36.803-10.124,54.33c-17.238-6.754-26.692-21.265-41.809-34.901 c3.907,15.355,6.472,27.114,9.951,38.596c2.893,9.545,3.862,9.55,13.67,5.898c15.847-5.901,31.459-12.611,48.814-13.077 C118.072,160.07,120.952,158.292,123.267,157.5z M150.342,105.147c-5.523,16.562-11.361,34.068-17.109,51.303 c11.006,0,21.802,0,32.904,0C160.533,138.245,155.293,121.227,150.342,105.147z M82.19,37.062 c-4.436,6.036-8.119,9.084-9.061,12.823c-1.187,4.714,2.419,7.921,7.32,8.36c5.467,0.49,10.177-1.839,9.611-7.649 C89.697,46.866,86.076,43.454,82.19,37.062z M149.482,24.227c-4.125,6.076-8.137,9.437-8.517,13.168 c-0.515,5.06,3.389,8.695,9.2,8.068c5.836-0.629,8.459-4.777,7.281-9.931C156.701,32.273,153.41,29.597,149.482,24.227z M273.267,90.205c4.049-6.621,7.62-10.093,8.202-14.01c0.736-4.947-3.578-7.244-8.418-7.214c-4.859,0.03-9.111,2.446-8.291,7.355 C265.413,80.246,269.072,83.653,273.267,90.205z M215.231,40.39c-1.455,2.15-4.615,4.941-5.282,8.237 c-1.053,5.2,1.847,9.057,7.555,9.568c5.255,0.47,7.547-2.609,7.575-7.516C225.109,45.555,223.498,41.49,215.231,40.39z M37.064,77.471c-4.94-4.038-7.386-7.394-10.532-8.287c-4.569-1.298-8.082,1.144-8.438,6.517c-0.366,5.517,1.963,9.93,7.557,9.597 C28.772,85.112,31.68,81.337,37.064,77.471z"/> </svg>