<?xml version="1.0" encoding="UTF-8"?>
<!-- Generator: Adobe Illustrator 17.0.0, SVG Export Plug-In . SVG Version: 6.00 Build 0) -->
<!DOCTYPE svg PUBLIC "-//W3C//DTD SVG 1.1//EN" "http://www.w3.org/Graphics/SVG/1.1/DTD/svg11.dtd">
<svg version="1.1" id="Layer_1" xmlns="http://www.w3.org/2000/svg" xmlns:xlink="http://www.w3.org/1999/xlink" x="0px" y="0px" width="300px" height="300px" viewBox="0 0 300 300" enable-background="new 0 0 300 300" xml:space="preserve"> <path fill="#4C4C4C" d="M166.54,30.312c0.188,6.109-13.46,77.725,0.171,116.645c8.103,23.136-24.282,27.84-23.55,32.873 c4.963,34.123,15.248-13.63-9.523-125.138C128.722,4.742,166.029,13.661,166.54,30.312z"/> <path fill="#F2F2F2" d="M151.391,274.786c-27.231,0.001-54.463,0.006-81.694-0.005c-4.331-0.002-8.663-0.109-12.994-0.109 c-6.014,0.001-9.216-2.706-9.05-8.98c0.141-5.351,2.978-7.819,8.12-7.984c3.092-0.099,6.186-0.185,9.279-0.185 c58.795-0.011,117.59-0.011,176.386,0c3.093,0.001,6.531-0.713,9.186,0.396c2.85,1.191,7.205,4.493,6.929,6.252 c-0.555,3.55-3.092,8.081-6.124,9.615c-3.523,1.783-8.452,0.962-12.772,0.97C209.567,274.811,180.479,274.785,151.391,274.786z"/> <path fill="#4C4C4C" d="M152.149,160.221c-12.187-1.286-23.697-2.562-35.22-3.702c-25.601-2.534-39.368-28.507-25.43-50.652 c12.997-20.65,32.073-34.885,55.639-42.186c3.69-1.143,8.398-0.6,12.22,0.547c22.732,6.821,39.591,21.945,53.569,40.271 c7.418,9.725,6.86,33.26-1.208,42.14c-4.199,4.621-11.364,7.862-17.676,8.98C180.081,158.09,165.812,158.826,152.149,160.221z M152.559,81.619c-3.491,3.47-7.559,5.603-7.827,8.138c-0.784,7.411-1.788,13.136-11.147,13.799 c-1.808,0.128-4.068,5.38-4.647,8.539c-0.773,4.219,0.149,9.199,5.582,9.587c7.479,0.533,9.981,4.135,9.695,11.15 c-0.2,4.888,2.349,7.822,7.581,8.039c5.755,0.239,9.285-2.222,9.054-8.138c-0.278-7.122,2.461-10.492,9.824-11.053 c5.436-0.414,6.319-5.407,5.539-9.614c-0.585-3.153-2.856-8.382-4.682-8.515c-9.309-0.682-10.443-6.311-11.188-13.776 C160.089,87.243,156.029,85.093,152.559,81.619z"/> <path fill="#4C4C4C" d="M152.524,172.873c11.114,0,22.228,0.093,33.34-0.039c5.678-0.067,9.102,1.743,8.938,8.125 c-0.185,7.205-4.724,6.496-9.867,6.435c-21.548-0.255-43.103-0.248-64.651-0.015c-5.077,0.055-9.707,0.936-9.949-6.332 c-0.213-6.379,3.14-8.246,8.848-8.179c11.112,0.13,22.227,0.038,33.341,0.038C152.524,172.896,152.524,172.885,152.524,172.873z"/> <path fill="#4C4C4C" d="M104.966,209.503c16.07-11.056,78.801-11.642,95.006-0.713c-10.068,7.641-21.342,4.131-31.709,4.801 c-10.474,0.677-21.052,0.715-31.528,0.089C126.317,213.059,115.071,216.988,104.966,209.503z"/> <path fill="#4C4C4C" d="M163.384,31.379c0.187,6.714-3.54,10.558-10.411,10.739c-6.976,0.184-10.961-3.37-11.153-9.947 c-0.183-6.249,4.156-10.875,10.372-11.059C158.411,20.928,163.216,25.335,163.384,31.379z"/> <path fill="#2B2B2B" d="M152.559,81.619c3.47,3.475,7.53,5.624,7.783,8.154c0.746,7.465,1.879,13.095,11.188,13.776 c1.826,0.134,4.098,5.362,4.682,8.515c0.78,4.207-0.103,9.2-5.539,9.614c-7.362,0.561-10.101,3.932-9.824,11.053 c0.231,5.916-3.299,8.377-9.054,8.138c-5.232-0.217-7.781-3.152-7.581-8.039c0.286-7.014-2.216-10.617-9.695-11.15 c-5.433-0.387-6.355-5.367-5.582-9.587c0.579-3.158,2.839-8.411,4.647-8.539c9.359-0.662,10.364-6.387,11.147-13.799 C145,87.222,149.068,85.088,152.559,81.619z"/> <path fill="#4C4C4C" d="M138,283.78c-24.164-0.005-49.303,1.217-73.464,0.97c-13.434-0.137-9.999-23.263-8.286-36 c3.777-28.075,13.634-45.176,38.5-61.31c7.24-4.698,9.248-9.844,15.575-15.69c11.593-10.711,10.847-9.515,0-20.266 c-2.638-2.615-9.723-12.086-12.325-14.734c-15.223-15.491-6.309-33.45,9.5-48.25c2.237-2.094,8.54-9.629,11-11.5 c14.559-11.069,10.823-5.324,4.5-22c-1.095-2.887-4.556-7.024-5.25-10c-1.659-7.121,9.264-17.489,15.442-22.25 c5.079-3.915,31.181-2.922,36.558,0.75c6.702,4.577,8.25,19.512,6.707,27.5c-0.804,4.163,1.566,12.474,0,16.5 c-5.665,14.561-2.978,11.129,10.043,20c8.914,6.073,12.042,10.347,16,21c5.256,14.146,8.504,26.556-2.528,36.25 c-1.86,1.635-10.798,8.942-12.722,10.5c-15.301,12.388-6.857,14.501,9.5,26.25c7.038,5.055,11.982,11.171,19,16.25 c24.048,17.403,26.318,40.411,29.25,68.368c0.611,5.823,3.375,17.512-3,17.632c-3.716,0.07-17.534-0.003-21.25,0 C198.447,283.767,160.305,283.785,138,283.78z"/> <path fill="#2B2B2B" d="M151.559,274.671c22.305,0,44.61,0.008,66.915-0.008c3.716-0.003,7.432-0.107,11.147-0.177 c6.375-0.12,8.935-3.849,8.324-9.672c-2.933-27.957-11.242-53.343-35.289-70.746c-7.019-5.079-14.512-9.501-21.55-14.555 c-16.358-11.749-16.553-18.376-1.252-30.764c1.924-1.558,3.775-3.207,5.636-4.842c11.032-9.694,13.84-20.935,8.584-35.082 c-3.958-10.653-11.263-17.212-20.177-23.285c-13.021-8.871-13.527-11.645-7.861-26.206c1.566-4.025,3.894-7.885,4.698-12.048 c1.543-7.989-1.42-14.771-8.122-19.348c-5.376-3.672-19.832-2.599-24.912,1.316c-6.177,4.762-7.35,11.218-5.691,18.339 c0.693,2.976,2.213,5.755,3.308,8.642c6.322,16.676,5.256,20.302-9.303,31.371c-2.46,1.871-5.279,3.33-7.516,5.424 c-15.808,14.8-16.163,35.45-0.94,50.941c2.602,2.648,5.515,4.99,8.153,7.605c10.847,10.751,11.042,13.068-0.552,23.779 c-6.327,5.846-13.385,11.036-20.625,15.734c-24.866,16.134-35.727,40.312-39.504,68.388c-1.714,12.737,0.607,14.978,14.041,15.115 C103.23,274.838,127.395,274.661,151.559,274.671z M257.38,297.084c-66.196,0.223-132.393,0.558-198.589,0.569 c-12.629,0.002-13.431-1.281-14.016-13.966c-1.389-30.13,0.063-60.061,20.141-84.571c10.381-12.672,23.944-22.736,37.228-35.053 c-11.829-13.018-22.326-28.437-20.022-49.241c2.266-20.465,13.851-33.721,31.229-42.439c-9.351-30.53-6.632-46.282,9.599-57.945 c15.732-11.305,41.45-12.395,55.862-1.636c21.565,16.101,18.312,36.923,9.403,57.871c40.747,28.328,44.106,64.483,8.312,93.759 c4.164,2.756,7.986,5.376,11.895,7.859c23.403,14.869,40.039,34.67,45.926,62.449c0.488,2.302,1.998,4.387,3.034,6.573 C257.38,259.905,257.38,278.494,257.38,297.084z"/> </svg>