<?xml version="1.0" encoding="UTF-8"?>
<!-- Generator: Adobe Illustrator 17.0.0, SVG Export Plug-In . SVG Version: 6.00 Build 0) -->
<!DOCTYPE svg PUBLIC "-//W3C//DTD SVG 1.1//EN" "http://www.w3.org/Graphics/SVG/1.1/DTD/svg11.dtd">
<svg version="1.1" id="Layer_1" xmlns="http://www.w3.org/2000/svg" xmlns:xlink="http://www.w3.org/1999/xlink" x="0px" y="0px" width="300px" height="300px" viewBox="0 0 300 300" enable-background="new 0 0 300 300" xml:space="preserve"> <path fill="#4C4C4C" d="M157.436,100.958c13.571-0.012,27.148-0.241,40.713,0.055c12.473,0.273,22.167-2.256,22.355,9.154 c0.336,20.351-0.201,42.978-0.004,63.333c0.075,7.714-0.923,23.382-8.859,23.334c-29.609-0.18-73.867-0.196-103.475,0 c-8.13,0.054-23.074-9.117-23-16.667c0.199-20.355,2.338-51.649,2-72c-0.143-8.583,17.005-7.531,25.857-7.301 C127.819,101.25,142.631,100.971,157.436,100.958z"/> <path fill="#4C4C4C" d="M130.167,96.167c-16.716-0.002-33.31-7.003-50-6.333c-20.087,0.808-33.52-25-40-42 c-3-9.667,3.429-18.42,5.993-27.405c2.266-7.944,34.102-11.114,37.007-2.928c2.453,6.913-0.675,12.351,6.667,13 c9.629,0.851,11.998,1.232,21.667,0c2.398-0.305,5.653-5.524,7.333-8c2.588-3.814,6.767-9.251,9.667-9.796 c8.333-1.566,16.12,3.403,24.638,4.39c2.106,0.244,25.876-3.099,27.029,0.073c4.338,11.933,2.054,14.012,12.333,14 c10.264-0.012,10.027,6.226,14.695-5.62c3.753-9.524,12.071-12.158,23.571-9.465c9.051,2.12,25.272,10.499,25.799,17.418 c0.818,10.733-8.098,33.594-16.066,41.347c-15.285,14.874-45.224,25.247-65.333,23.653C162.862,97.525,142.55,96.169,130.167,96.167 z"/> <path fill="#4C4C4C" d="M271.5,272.167c-53.667,13.667-180,15.667-242.333,8.667c9.725-9.49,49.917-77.041,57.91-83.452 c3.43-2.752,9.032-3.833,13.666-3.881c31.434-0.325,62.873-0.068,94.31-0.252c7.209-0.042,13.168,1.727,18.173,7.175 C218.969,206.673,263.062,263.684,271.5,272.167z"/> <path fill="#2B2B2B" d="M151.445,105.054c-14.805,0-29.617,0.28-44.413-0.105c-8.852-0.23-11.958,3.54-11.815,12.123 c0.338,20.351,0.25,40.713,0.051,61.068c-0.074,7.55,2.528,11.4,10.658,11.346c29.609-0.196,59.22-0.184,88.829-0.004 c7.935,0.048,10.966-3.45,10.891-11.163c-0.197-20.355,0.198-40.717-0.138-61.069c-0.188-11.41-0.878-11.881-13.351-12.154 C178.593,104.8,165.017,105.029,151.445,105.054z M149.077,85.386c12.383,0,24.828-0.795,37.133,0.18 c20.109,1.594,37.119-2.405,52.405-17.277c7.968-7.753,12.326-14.507,11.508-25.241c-0.527-6.919-0.01-13.799-9.06-15.918 c-11.5-2.693-19.818-0.059-23.571,9.465c-4.667,11.845-14.104,12.162-24.368,12.174c-10.279,0.012-20.02-0.242-24.357-12.175 c-1.153-3.173-3.226-8.208-5.332-8.452c-8.518-0.987-17.407-1.462-25.74,0.104c-2.901,0.545-4.334,7.712-6.922,11.526 c-1.68,2.476-4.035,5.927-6.433,6.232c-9.67,1.232-19.568,2.481-29.196,1.63c-7.342-0.649-10.077-7.519-12.529-14.432 c-2.904-8.186-23.891-9.67-26.158-1.726c-2.563,8.985-4.786,22.494-0.08,28.226c10.508,12.8,22.469,26.625,42.557,25.818 C115.623,84.849,132.361,85.382,149.077,85.386z M235.924,236.713c-8.438-8.483-14.62-14.33-20.363-20.58 c-5.005-5.447-10.964-7.217-18.173-7.175c-31.436,0.184-62.876-0.073-94.31,0.252c-4.634,0.048-10.235,1.129-13.666,3.881 c-7.993,6.411-14.936,14.132-24.661,23.622C122.881,236.713,177.359,236.713,235.924,236.713z M150.391,274.785 c29.088,0,58.176,0.026,87.264-0.028c4.32-0.008,9.249,0.813,12.772-0.97c3.032-1.534,5.568-6.065,6.124-9.615 c0.275-1.759-4.079-5.062-6.929-6.252c-2.655-1.109-6.093-0.396-9.186-0.396c-58.795-0.01-117.59-0.01-176.386,0 c-3.093,0.001-6.187,0.086-9.279,0.185c-5.142,0.164-7.979,2.633-8.12,7.984c-0.166,6.274,3.037,8.98,9.05,8.98 c4.331-0.001,8.663,0.107,12.994,0.109C95.928,274.792,123.159,274.786,150.391,274.785z M151.194,297.879 c-31.57,0.003-63.141-0.154-94.709,0.084c-12.039,0.091-23.97,0.624-30.557-12.24c-5.469-10.681-1.762-33.86,7.323-43.479 c10.198-10.796,20.559-21.489,31.508-31.508c7.922-7.249,11.261-15.273,10.969-26.08c-0.635-23.506-0.496-47.046-0.053-70.56 c0.169-8.956-2.952-15.492-9.883-20.695c-4.447-3.338-8.952-6.639-13.087-10.342C29.965,62.696,30.001,62.655,31.29,31.922 C32.005,14.867,42.184,4.366,58.924,3.711C65.723,3.445,72.55,3.89,79.348,3.602c11.729-0.497,20.768,2.375,23.434,15.67 c0.426,2.123,3.772,3.66,5.768,5.467c1.444-1.77,3.799-3.362,4.185-5.338c2.576-13.192,11.523-16.257,23.336-15.817 c9.272,0.345,18.58,0.364,27.85-0.005c12.411-0.494,22.16,2.211,24.583,16.571c0.304,1.803,3.066,4.457,4.651,4.431 c1.658-0.027,4.4-2.614,4.722-4.428c2.533-14.261,12.237-17.131,24.659-16.56c7.413,0.341,14.884-0.321,22.275,0.215 c15.511,1.124,23.263,10.903,25.127,26.24c2.849,23.435-2.069,43.091-23.778,54.911c-20.338,11.074-22.243,28.59-21.003,48.736 c1.025,16.65,0.859,33.448-0.012,50.116c-0.607,11.614,3.297,19.962,11.765,27.608c11.012,9.942,21.212,20.798,31.549,31.466 c8.535,8.808,12.116,32.885,6.395,43.267c-5.017,9.105-13.175,11.945-23.38,11.846C218.05,297.673,184.621,297.876,151.194,297.879z "/> </svg>