<?xml version="1.0" encoding="UTF-8"?>
<!-- Generator: Adobe Illustrator 17.0.0, SVG Export Plug-In . SVG Version: 6.00 Build 0) -->
<!DOCTYPE svg PUBLIC "-//W3C//DTD SVG 1.1//EN" "http://www.w3.org/Graphics/SVG/1.1/DTD/svg11.dtd">
<svg version="1.1" id="Layer_1" xmlns="http://www.w3.org/2000/svg" xmlns:xlink="http://www.w3.org/1999/xlink" x="0px" y="0px" width="300px" height="300px" viewBox="0 0 300 300" enable-background="new 0 0 300 300" xml:space="preserve"> <ellipse fill="#F2F2F2" cx="150.267" cy="107.958" rx="20.682" ry="44.387"/> <path fill="#F2F2F2" d="M270.293,142.244c0,0-17.333,145.333-112,145.333c-118.053,0-80.009-52.979-102.667-82 c-97.333-124.667,38.702-109.683,96.667-88C165.665,122.579,275.667,67.581,270.293,142.244z"/> <path fill="#2B2B2B" d="M187.483,101.14c6.37-2.99,11.38-5.338,16.387-7.691c24.226-11.384,51.75-6.452,69.898,13.056 c13.289,14.285,18.708,31.214,11.513,49.882c-4.408,11.437-10.391,22.609-17.504,32.591c-14.883,20.888-23.091,43.469-23.901,69.205 c-0.641,20.371-6.828,28.341-26.808,33.768c-14.024,3.81-28.678,6.701-43.144,7.183c-29.237,0.975-58.638,2.399-87.416-5.91 c-20.811-6.008-27.442-13.385-29.486-35.476c-2.271-24.531-8.588-47.605-23.755-67.683c-5.088-6.735-9.837-13.833-13.879-21.235 c-19.812-36.285,4.937-78.674,46.291-80.51c17.001-0.755,31.919,4.386,46.318,13.399c1.097-2.61,2.327-4.109,2.223-5.509 c-1.113-14.999,6.06-25.697,16.894-35.084c10.172-8.813,9.712-11.141-1.073-18.7c-3.19-2.236-6.82-4.359-8.997-7.424 c-5.444-7.665-2.369-15.998,6.817-17.107c6.579-0.795,9.442-3.589,12.371-9.159c6.176-11.747,13.695-11.504,20.188,0.426 c2.655,4.878,5.543,7.432,11.192,8.736c8.994,2.076,11.587,12.296,5.584,19.322c-1.431,1.675-3.585,2.717-5.335,4.139 c-11.812,9.595-12.146,11.972-0.407,21.408C183.429,72.391,187.609,85.119,187.483,101.14z M139.958,187.879 c-2.269-36.811-20.558-61.637-52.617-76.967c-15.188-7.263-34.913-4.186-45.576,6.693c-9.439,9.63-12.693,28.582-5.752,42.483 c4.988,9.991,11.818,19.093,18.14,28.377c4.052,5.95,9.745,9.128,17.304,8.449c17.908-1.608,35.851-2.859,53.73-4.733 C130.043,191.671,134.72,189.455,139.958,187.879z M224.725,196.696c0.183,0.595,0.365,1.189,0.548,1.784 c6.087-2.131,13.927-2.589,17.892-6.744c8.065-8.452,14.782-18.468,20.686-28.634c7.434-12.801,5.037-32.395-4.146-42.861 c-11.149-12.707-25.18-17.093-41.111-11.493c-30.057,10.566-52.351,35.328-58.051,70.603c-0.828,5.125,0.58,8.914,5.82,10.585 c3.747,1.195,7.482,2.895,11.325,3.241C193.346,194.586,209.043,195.561,224.725,196.696z M224.652,251.567 c1.405-8.674,2.003-15.928,3.856-22.845c1.978-7.381-0.494-10.619-7.678-11.372c-17.875-1.871-35.98-2.628-53.537-6.12 c-14.28-2.84-27.79-0.827-41.63,0.882c-8.36,1.032-16.726,2.345-25.123,2.681c-31.651,1.267-34.265,5.043-22.736,36.437 C125.677,238.425,174.051,238.923,224.652,251.567z M150.891,142.763c7.646-11.132,14.158-20.967,15.338-32.919 c0.744-7.539,0.102-15.365-1.037-22.893c-1.025-6.774-5.969-10.458-12.939-11.065c-6.821-0.594-12.395,1.871-15.326,7.984 c-2.113,4.408-3.636,9.416-4.035,14.27C131.517,114.845,139.22,128.251,150.891,142.763z M90.711,270.812 c0.303,1.53,0.605,3.06,0.908,4.59c38.868,6.613,77.686,9.862,116.606-2.595c-2.413-3.191-4.994-5.747-7.85-6.104 c-30.768-3.851-61.625-2.835-92.434-0.609C102.114,266.514,96.45,269.181,90.711,270.812z"/> </svg>