<?xml version="1.0" encoding="UTF-8"?>
<!-- Generator: Adobe Illustrator 17.0.0, SVG Export Plug-In . SVG Version: 6.00 Build 0) -->
<!DOCTYPE svg PUBLIC "-//W3C//DTD SVG 1.1//EN" "http://www.w3.org/Graphics/SVG/1.1/DTD/svg11.dtd">
<svg version="1.1" id="Layer_1" xmlns="http://www.w3.org/2000/svg" xmlns:xlink="http://www.w3.org/1999/xlink" x="0px" y="0px" width="300px" height="300px" viewBox="0 0 300 300" enable-background="new 0 0 300 300" xml:space="preserve"> <path fill="#F2F2F2" d="M138.267,26.571c11.422,0,28.233,74.506,28.233,99.02s-89.018,99.02-100.44,99.02S-32.5,245.5,52.5,103.747 C78.5,48.5,126.845,26.571,138.267,26.571z"/> <path fill="#F2F2F2" d="M270.293,142.244c0,0,51.207,149.256,0.191,150.256c-175.133,3.433-152.326,21.021-174.984-8 c128-162.511-15.965-282.683,42-261C150.872,28.502,250.5,103.747,270.293,142.244z"/> <path fill="#2B2B2B" d="M0.801,190.565c17.905-39.834,35.705-79.715,53.768-119.478c6.735-14.826,6.275-30.337,5.994-46.023 c-0.252-14.078,2.542-16.999,16.513-14.695c9.699,1.6,19.291,5.171,28.29,9.27c7.273,3.312,12.587,5.008,16.683-3.811 c1.265-2.723,3.759-4.994,6.03-7.108c7.691-7.156,11.861-7.956,19.074-0.049c6.994,7.667,12.548,16.908,17.429,26.147 c2.997,5.673,5.932,8.878,12.58,8.701c26.977-0.719,45.879,15.4,62.75,32.964c37.051,38.574,53.834,86.276,57.95,138.881 c1.409,18.013,2.33,36.068,3.208,54.117c0.241,4.961,0.007,10.054-0.847,14.94c-2.515,14.404-3.646,15.568-18.065,15.603 c-60.043,0.148-120.087,0.174-180.13-0.019c-15.178-0.049-16.922-3.135-13.51-18.387c5.93-26.51,22.405-47.158,37.724-68.417 c6.931-9.618,13.142-19.325,14.693-33.299c-20.909,9.211-36.091,22.249-47.51,39.895c-3.384,5.23-6.71,10.553-10.633,15.368 c-8.287,10.171-16.456,11.223-27.678,4.824c-5.192-2.96-10.853-6.872-16.415-7.064c-14.526-0.502-25.174-6.046-32.432-18.603 c-1.177-2.037-3.613-3.346-5.466-4.992C0.801,203.074,0.801,196.819,0.801,190.565z M111.487,278.928 c9.348,0.538,13.641,0.994,17.935,0.999c42.477,0.054,84.953,0.101,127.43,0.001c17.16-0.04,18.869-0.348,19.824-17.204 c0.978-17.269-0.611-34.783-2.243-52.079c-4.104-43.498-20.541-82.051-49.023-115.172c-15.503-18.028-33.203-32.489-59.485-28.612 c-1.221,0.18-2.497-0.051-3.744-0.005c-8.771,0.325-13.869-3.391-15.765-12.4c-1.597-7.585-4.602-14.873-7.593-24.19 C126.32,47.703,109.509,53.34,93.099,59.109c-9.641,3.389-15.024,8.933-19.194,18.373c-12.859,29.109-27.075,57.616-40.654,86.409 c-3.722,7.893-7.107,15.946-10.556,23.965c-3.146,7.313-4.391,14.571,2.459,20.606c6.927,6.103,14.017,9.129,23.825,4.905 c13.445-5.791,13.755-5.072,17.081,11.243c4.791-5.513,9.323-9.697,12.617-14.697c13.688-20.775,30.906-37.51,53.724-47.883 c7.03-3.196,8.988-8.859,11.685-15.538c5.3-13.124,12.452-25.555,19.619-37.816c1.168-1.999,6.511-2.549,9.582-1.966 c1.271,0.241,3.039,5.753,2.204,7.973c-7.798,20.726-8.616,42.545-11.429,64.14c-2.809,21.563-15.184,39.287-26.693,57.193 C129.055,248.951,121.449,262.343,111.487,278.928z"/> <path fill="#2B2B2B" d="M106.182,97.694c-2.453,10.13-10.255,16.198-19.688,19.861c-6.341,2.462-13.649,8.474-20.123,0.249 c-4.032-5.123-2.016-16.13,5.42-21.616c6.656-4.911,14.843-8.733,22.905-10.444C101.35,84.331,106.177,89.296,106.182,97.694z"/> <path fill="#2B2B2B" d="M31.296,204.987c-1.482-2.105-4.918-4.954-5.601-8.356c-1.638-8.158,4.927-18.137,10.446-16.228 c3.705,1.281,7.397,6.146,8.645,10.167C46.708,196.762,39.934,204.399,31.296,204.987z"/> </svg>